<?xml version="1.0" encoding="UTF-8" standalone="no"?>
<!-- Generator: Adobe Illustrator 19.2.1, SVG Export Plug-In . SVG Version: 6.00 Build 0)  -->

<svg
   xmlns:dc="http://purl.org/dc/elements/1.1/"
   xmlns:cc="http://creativecommons.org/ns#"
   xmlns:rdf="http://www.w3.org/1999/02/22-rdf-syntax-ns#"
   xmlns:svg="http://www.w3.org/2000/svg"
   xmlns="http://www.w3.org/2000/svg"
   xmlns:sodipodi="http://sodipodi.sourceforge.net/DTD/sodipodi-0.dtd"
   xmlns:inkscape="http://www.inkscape.org/namespaces/inkscape"
   version="1.1"
   id="Layer_1"
   x="0px"
   y="0px"
   viewBox="0 0 220 220"
   xml:space="preserve"
   inkscape:version="0.91 r13725"
   sodipodi:docname="monkey.svg"
   width="220"
   height="220"
   inkscape:export-filename="/home/noam/sand/codemonkey-translate/monkey128.png"
   inkscape:export-xdpi="52.360001"
   inkscape:export-ydpi="52.360001"><metadata
     id="metadata3474"><rdf:RDF><cc:Work
         rdf:about=""><dc:format>image/svg+xml</dc:format><dc:type
           rdf:resource="http://purl.org/dc/dcmitype/StillImage" /><dc:title /></cc:Work></rdf:RDF></metadata><defs
     id="defs3472" /><sodipodi:namedview
     pagecolor="#ffffff"
     bordercolor="#666666"
     borderopacity="1"
     objecttolerance="10"
     gridtolerance="10"
     guidetolerance="10"
     inkscape:pageopacity="0"
     inkscape:pageshadow="2"
     inkscape:window-width="1920"
     inkscape:window-height="1025"
     id="namedview3470"
     showgrid="false"
     inkscape:zoom="0.97474747"
     inkscape:cx="213.99482"
     inkscape:cy="270.83938"
     inkscape:window-x="0"
     inkscape:window-y="0"
     inkscape:window-maximized="1"
     inkscape:current-layer="Layer_1" /><style
     type="text/css"
     id="style3426">
	.st0{fill:#C49A6C;}
	.st1{fill:#8B5E3C;stroke:#603913;stroke-width:2;stroke-miterlimit:10;}
	.st2{fill:#A97C50;}
	.st3{fill:#FFFFFF;}
	.st4{fill:none;stroke:#603913;stroke-width:3;stroke-miterlimit:10;}
</style><g
     id="g3513"
     transform="translate(-312.21999,464.1595)"><g
       transform="translate(0,-576)"
       id="g3428"><line
         style="fill:#c49a6c"
         id="line3430"
         y2="131.2"
         x2="332.60001"
         y1="140.8"
         x1="349.10001"
         class="st0" /><g
         id="g3432"><path
           style="fill:#8b5e3c;stroke:#603913;stroke-width:2;stroke-miterlimit:10"
           inkscape:connector-curvature="0"
           id="path3434"
           d="m 362.9,201.5 c 0,-15.7 -32.2,-42.5 -46.9,0 -7.8,22.6 47,45.4 46.9,0 z"
           class="st1" /><path
           style="fill:#a97c50"
           inkscape:connector-curvature="0"
           id="path3436"
           d="m 356.1,204.3 c 0,-10.5 -23,-28.4 -33.5,0 -5.6,15.1 33.6,30.3 33.5,0 z"
           class="st2" /></g><g
         id="g3438"><path
           style="fill:#8b5e3c;stroke:#603913;stroke-width:2;stroke-miterlimit:10"
           inkscape:connector-curvature="0"
           id="path3440"
           d="m 529.2,202.7 c 0,-15.7 -32.2,-42.5 -46.9,0 -7.8,22.6 47,45.4 46.9,0 z"
           class="st1" /><path
           style="fill:#a97c50"
           inkscape:connector-curvature="0"
           id="path3442"
           d="m 522.4,205.5 c 0,-10.5 -23,-28.4 -33.5,0 -5.6,15.1 33.6,30.3 33.5,0 z"
           class="st2" /></g><g
         id="g3444"><path
           style="fill:#8b5e3c;stroke:#603913;stroke-width:2;stroke-miterlimit:10"
           inkscape:connector-curvature="0"
           id="path3446"
           d="m 496.9,283 c 41.2,-35.5 0,-65 0,-65 0,0 2.7,-28.5 0,-37.5 -17.1,-57.8 -74,-50 -74,-50 l 0,0 c 0,0 -58.5,-7.8 -74.8,50 -2.5,9 0,37.5 0,37.5 0,0 -35,25 0,65 0.1,0 68.9,68.7 148.8,0 z"
           class="st1" /><path
           style="fill:#c49a6c"
           inkscape:connector-curvature="0"
           id="path3448"
           d="m 483.1,274.3 c 32.7,-29.4 0,-54 0,-54 0,0 2.1,-23.7 0,-31.1 -13.6,-48 -58.7,-41.5 -58.7,-41.5 l 0,0 c 0,0 -46.5,-6.5 -59.4,41.5 -2,7.5 0,31.1 0,31.1 0,0 -27.8,20.8 0,54 0,0 54.6,57.1 118.1,0 z"
           class="st0" /></g></g><g
       transform="translate(0,-576)"
       id="g3450"><circle
         style="fill:#ffffff"
         id="circle3452"
         r="21.1"
         cy="193.39999"
         cx="400.20001"
         class="st3" /></g><path
       style="fill:none;stroke:#603913;stroke-width:3;stroke-miterlimit:10"
       inkscape:connector-curvature="0"
       id="path3454"
       d="m 483.5,-339.6 c 0,0 -5,-2.7 -11.6,0.4 -6.7,3.1 -6.7,3.1 -6.7,3.1"
       class="st4" /><path
       style="fill:none;stroke:#603913;stroke-width:3;stroke-miterlimit:10"
       inkscape:connector-curvature="0"
       id="path3456"
       d="m 477.1,-339.1 c 0,0 -2.1,21.1 -16.3,28.8 -14.7,7.9 -48.7,11.9 -64.1,6.3 -12.8,-4.7 -20.7,-35 -20.7,-35"
       class="st4" /><path
       style="fill:none;stroke:#603913;stroke-width:3;stroke-miterlimit:10"
       inkscape:connector-curvature="0"
       id="path3458"
       d="m 441.3,-340.9 c 0,0 -5.3,-10.4 -12.3,-10.3 -7.2,0.1 -12.4,5.3 -12.4,5.3"
       class="st4" /><path
       style="fill:none;stroke:#603913;stroke-width:3;stroke-miterlimit:10"
       inkscape:connector-curvature="0"
       id="path3460"
       d="m 385.2,-339.9 c 0,0 -5,-2.7 -11.6,0.4 -6.7,3.1 -6.7,3.1 -6.7,3.1"
       class="st4" /><circle
       id="circle3462"
       r="11.7"
       cy="-377.20001"
       cx="401.5" /><g
       transform="translate(0,-576)"
       id="g3464"><circle
         style="fill:#ffffff"
         id="circle3466"
         r="21.1"
         cy="193"
         cx="443.29999"
         class="st3" /></g><circle
       id="circle3468"
       r="11.7"
       cy="-377.20001"
       cx="443.29999" /></g></svg>